<?xml version="1.0" encoding="UTF-8"?>
<svg id="Layer_2" data-name="Layer 2" xmlns="http://www.w3.org/2000/svg" viewBox="0 0 117.61 110.99">
  <defs>
    <style>
      .cls-1 {
        fill: #fff;
        stroke-width: 0px;
      }
    </style>
  </defs>
  <g id="Layer_1-2" data-name="Layer 1">
    <g>
      <g>
        <path class="cls-1" d="m91.53,86.93h-41.84c-8.02,0-14.3-3.71-18.83-11.12-3.93-6.43-5.9-14.34-5.9-23.72V0H.33v52.1c-.11.6-.19,1.31-.24,2.13-.06.82-.08,1.91-.08,3.27,0,7.36.87,14.15,2.62,20.37,2.67,9.49,7.23,16.99,13.67,22.5,8.3,7.09,19.42,10.63,33.4,10.63h44.28v-21.09l-2.44-2.44v-.54Z"/>
        <path class="cls-1" d="m91.65,86.87s-.07.01-.1.01c-.01,0-.02,0-.04,0v24.12h23.55l-23.41-24.13Z"/>
      </g>
      <g>
        <polygon class="cls-1" points="92.97 17 92.97 76.21 117.61 100.84 117.61 17 92.97 17"/>
        <path class="cls-1" d="m93.18,0v11.84h24.23V0h-24.23Z"/>
      </g>
    </g>
  </g>
</svg>